<?xml version="1.0" standalone="no"?>
<!DOCTYPE svg PUBLIC "-//W3C//DTD SVG 20010904//EN"
 "http://www.w3.org/TR/2001/REC-SVG-20010904/DTD/svg10.dtd">
<svg version="1.0" xmlns="http://www.w3.org/2000/svg"
 width="204.000000pt" height="102.000000pt" viewBox="0 0 204.000000 102.000000"
 preserveAspectRatio="xMidYMid meet">

<g transform="translate(0.000000,102.000000) scale(0.100000,-0.100000)"
fill="#000000" stroke="none">
<path d="M994 899 c-40 -44 -16 -124 62 -214 73 -83 92 -145 58 -193 l-15 -22
118 -1 c65 0 170 -3 233 -5 l115 -5 -68 69 c-38 38 -75 69 -83 68 -7 0 -84 62
-170 139 -86 77 -160 140 -163 140 -3 0 -20 10 -37 22 l-31 22 -19 -20z"/>
<path d="M911 826 c-8 -9 -11 -19 -7 -23 3 -3 6 0 6 8 0 12 2 12 10 -1 12 -19
19 -10 11 13 -6 17 -8 18 -20 3z"/>
<path d="M836 749 c-26 -27 -52 -46 -58 -43 -5 3 -16 -2 -23 -12 -8 -11 -15
-15 -15 -10 0 6 -13 -3 -30 -19 -16 -15 -27 -32 -24 -37 3 -5 0 -7 -8 -6 -7 2
-12 -3 -11 -9 2 -7 -1 -12 -5 -10 -5 1 -23 -14 -41 -33 -19 -19 -30 -28 -25
-20 7 13 5 13 -9 1 -9 -7 -14 -18 -10 -24 3 -5 2 -7 -4 -4 -5 4 -23 -7 -38
-23 -16 -17 -23 -30 -17 -30 7 0 12 6 12 13 0 8 3 9 8 1 10 -15 242 -19 242
-5 0 12 91 15 153 5 32 -6 35 -9 25 -22 -11 -13 -10 -14 10 -3 12 6 22 16 22
22 0 6 -4 8 -8 5 -4 -2 -14 0 -22 5 -12 7 -11 8 5 6 11 -1 25 -6 32 -10 20
-13 69 57 65 94 -8 60 -19 82 -73 139 -19 19 -33 38 -32 41 1 4 -7 5 -17 2
-12 -3 -20 0 -20 6 0 7 4 10 9 6 5 -3 12 -1 15 4 3 5 -3 11 -14 14 -11 3 -20
0 -20 -5 0 -7 -4 -7 -13 0 -9 8 -25 -2 -61 -39z m37 0 c-8 -8 -13 -7 -18 2 -5
8 -4 10 3 5 7 -4 12 -2 12 5 0 7 3 9 7 6 4 -4 2 -12 -4 -18z m-152 -98 c-6
-10 -7 -21 -4 -25 3 -3 1 -6 -5 -6 -7 0 -12 3 -12 6 0 9 20 44 26 44 2 0 0 -8
-5 -19z"/>
<path d="M495 406 c-14 -14 -25 -32 -25 -39 0 -26 34 -57 85 -76 56 -21 79
-46 55 -61 -28 -18 -61 -10 -92 20 -17 17 -32 30 -33 28 -1 -2 -5 -19 -8 -38
l-5 -36 85 1 c77 0 87 2 104 24 40 49 18 89 -64 117 -76 26 -89 64 -22 64 24
0 39 -7 53 -25 26 -33 32 -32 32 8 l0 33 -70 2 c-63 3 -73 0 -95 -22z"/>
<path d="M1240 420 c0 -5 7 -10 15 -10 8 0 15 -6 15 -13 0 -9 -12 -11 -39 -9
-30 3 -43 -1 -59 -18 -40 -43 -35 -137 8 -160 26 -14 63 -12 79 3 11 9 13 9 7
0 -5 -10 5 -13 38 -13 25 0 46 5 46 10 0 6 -4 10 -10 10 -6 0 -10 42 -10 105
l0 105 -45 0 c-25 0 -45 -4 -45 -10z m26 -84 c9 -38 0 -88 -19 -100 -14 -8
-20 -8 -27 4 -11 17 -13 64 -4 98 8 30 42 29 50 -2z"/>
<path d="M740 388 c-30 -16 -38 -53 -14 -62 21 -8 44 11 44 36 0 30 34 18 38
-14 3 -22 -2 -28 -35 -38 -50 -16 -73 -38 -73 -67 0 -33 41 -51 83 -35 21 8
35 8 41 2 13 -13 47 -13 66 0 13 9 13 12 -2 21 -14 8 -18 24 -18 73 0 44 -5
67 -15 76 -22 18 -87 22 -115 8z m70 -117 c0 -17 -6 -31 -16 -35 -34 -13 -46
20 -18 48 23 24 34 19 34 -13z"/>
<path d="M933 393 c-26 -5 -31 -23 -7 -23 12 0 15 -12 13 -70 -1 -47 -6 -71
-16 -74 -31 -12 -9 -26 42 -26 55 0 65 6 44 27 -5 5 -9 34 -7 64 3 47 6 54 26
57 21 3 22 0 22 -72 l0 -76 40 0 c22 0 40 5 40 10 0 6 -4 10 -10 10 -6 0 -10
31 -10 73 0 43 -5 78 -12 85 -15 15 -53 15 -79 1 -16 -8 -25 -7 -38 5 -10 9
-19 15 -22 15 -2 -1 -14 -4 -26 -6z"/>
<path d="M1350 374 c0 -4 6 -12 13 -18 19 -16 81 -157 79 -180 -2 -32 -21 -44
-37 -22 -15 20 -42 16 -51 -9 -8 -20 13 -45 38 -45 34 0 72 51 117 155 24 55
48 102 52 103 22 9 6 22 -26 22 -33 0 -48 -14 -24 -22 8 -3 5 -17 -9 -43 l-20
-40 -17 40 c-12 27 -14 40 -6 43 31 10 4 22 -49 22 -33 0 -60 -3 -60 -6z"/>
<path d="M470 142 c0 -15 4 -20 16 -15 9 3 12 9 7 12 -4 3 -11 10 -15 15 -5 5
-8 0 -8 -12z"/>
<path d="M520 140 c0 -14 5 -18 16 -13 11 4 12 8 4 13 -9 6 -9 9 1 13 10 4 9
6 -3 6 -12 1 -18 -6 -18 -19z"/>
<path d="M610 142 c0 -10 7 -19 15 -19 8 0 15 9 15 19 0 10 -7 18 -15 18 -8 0
-15 -8 -15 -18z"/>
<path d="M657 140 c3 -11 7 -20 8 -20 1 0 5 9 8 20 3 12 0 20 -8 20 -8 0 -11
-8 -8 -20z"/>
<path d="M725 150 c-3 -6 1 -7 9 -4 11 4 16 0 16 -11 0 -12 -5 -15 -17 -10
-15 5 -16 4 -5 -6 16 -17 37 3 29 25 -7 18 -23 21 -32 6z"/>
<path d="M770 140 c0 -14 5 -18 16 -13 11 4 12 8 4 13 -9 6 -9 9 1 13 10 4 9
6 -3 6 -12 1 -18 -6 -18 -19z"/>
<path d="M838 153 c6 -2 18 -2 25 0 6 3 1 5 -13 5 -14 0 -19 -2 -12 -5z"/>
<path d="M930 135 c0 -17 5 -25 18 -25 14 0 15 2 2 10 -13 9 -13 10 0 10 12 0
13 2 1 9 -11 7 -11 9 0 14 10 4 9 6 -3 6 -13 1 -18 -7 -18 -24z"/>
<path d="M1066 145 c-9 -23 -8 -25 9 -25 17 0 19 9 6 28 -7 11 -10 10 -15 -3z"/>
<path d="M1156 145 c-9 -23 -8 -25 9 -25 17 0 19 9 6 28 -7 11 -10 10 -15 -3z"/>
<path d="M1198 135 c2 -14 6 -25 7 -25 1 0 5 11 7 25 3 16 1 25 -7 25 -8 0
-10 -9 -7 -25z"/>
<path d="M1234 145 c-7 -17 3 -35 19 -34 9 0 9 2 0 6 -7 2 -13 11 -13 18 0 7
6 16 13 18 9 4 9 6 -1 6 -7 1 -15 -6 -18 -14z"/>
<path d="M1280 134 c0 -15 3 -23 8 -18 4 5 10 11 13 14 4 3 1 11 -7 18 -12 11
-14 8 -14 -14z"/>
<path d="M570 146 c0 -2 7 -9 15 -16 13 -11 14 -10 9 4 -5 14 -24 23 -24 12z"/>
<path d="M1006 134 c-9 -24 -7 -31 4 -14 9 13 11 13 20 0 11 -17 13 -10 4 14
-8 20 -20 20 -28 0z"/>
<path d="M880 130 c0 -5 7 -7 15 -4 8 4 15 8 15 10 0 2 -7 4 -15 4 -8 0 -15
-4 -15 -10z"/>
</g>
</svg>
